<?xml version="1.0" encoding="utf-8"?>
<!-- Generator: Adobe Illustrator 16.0.0, SVG Export Plug-In . SVG Version: 6.00 Build 0)  -->
<!DOCTYPE svg PUBLIC "-//W3C//DTD SVG 1.1//EN" "http://www.w3.org/Graphics/SVG/1.1/DTD/svg11.dtd">
<svg version="1.1" id="Layer_1" xmlns="http://www.w3.org/2000/svg" xmlns:xlink="http://www.w3.org/1999/xlink" x="0px" y="0px"
	 width="100px" height="64.084px" viewBox="0 0 100 64.084" enable-background="new 0 0 100 64.084" xml:space="preserve">
<g>
	<path fill-rule="evenodd" clip-rule="evenodd" fill="#8A8A8A" d="M49.998,0.004c12.901,0,25.802-0.008,38.704,0.004
		c5.508,0.005,9.688,3.212,11.027,8.399C99.963,9.316,100,10.241,100,11.17C100,25.042,100,38.913,100,52.785
		c-0.001,6.555-4.619,11.276-11.172,11.283c-25.882,0.023-51.766,0.021-77.649,0.002C4.64,64.065,0.002,59.339,0.001,52.79
		C0,38.958,0,25.127,0.001,11.296C0.002,4.694,4.664,0.016,11.295,0.008C24.196-0.007,37.097,0.004,49.998,0.004z M49.874,59.138
		c12.861,0,25.721,0.001,38.582-0.003c0.684,0,1.368,0.028,2.046-0.153c3.079-0.824,4.647-3.165,4.649-7.038
		c0.005-13.265,0.003-26.53-0.001-39.795c-0.001-0.928-0.004-1.863-0.256-2.765c-0.781-2.801-3.108-4.438-6.307-4.438
		C62.867,4.943,37.145,4.944,11.423,4.944c-0.202,0-0.404-0.004-0.606,0.002C8.465,5.009,6.781,6.148,5.605,8.142
		c-0.691,1.171-0.747,2.465-0.748,3.753C4.842,25.363,4.848,38.829,4.849,52.297c0,0.242,0.014,0.485,0.034,0.727
		c0.342,3.998,2.64,6.113,6.651,6.114C24.314,59.139,37.094,59.138,49.874,59.138z"/>
	<path fill-rule="evenodd" clip-rule="evenodd" fill="#8A8A8A" d="M51.966,47.618c2.146-10.321,4.286-20.6,6.432-30.917
		c0.258-0.036,0.49-0.097,0.722-0.097c4.688,0.005,9.376-0.05,14.062,0.041c8.062,0.155,13.104,5.769,12.673,13.86
		c-0.294,5.521-2.218,10.206-6.628,13.688c-3.108,2.454-6.801,3.333-10.64,3.44c-5.33,0.149-10.667,0.07-16.001,0.085
		C52.431,47.718,52.275,47.669,51.966,47.618z M63.437,39.208c1.497,0,2.87-0.082,4.228,0.015c4.793,0.34,7.482-3.35,8.352-6.614
		c1.032-3.874-0.706-7.003-4.244-7.744c-1.759-0.37-3.522-0.183-5.316-0.231C65.449,29.498,64.462,34.258,63.437,39.208z"/>
	<path fill-rule="evenodd" clip-rule="evenodd" fill="#8A8A8A" d="M15.776,47.726c0.638-3.035,1.232-5.91,1.845-8.782
		c1.524-7.133,3.058-14.263,4.587-21.395c0.091-0.424,0.069-0.942,0.702-0.943c3.065-0.006,6.129-0.003,9.332-0.003
		c-0.727,3.473-1.424,6.806-2.165,10.343c1.647,0,3.126,0,4.605,0c1.577,0,3.155-0.045,4.729,0.019
		c0.825,0.033,1.107-0.294,1.259-1.057c0.615-3.078,1.289-6.144,1.95-9.254c3.244,0,6.423,0,9.733,0
		c-0.524,2.554-1.019,5.031-1.542,7.503c-1.594,7.529-3.2,15.056-4.796,22.584c-0.1,0.47-0.054,0.991-0.78,0.988
		c-3.026-0.014-6.052-0.006-9.162-0.006c0.859-4.176,1.693-8.232,2.546-12.371c-3.484,0-6.862,0-10.304,0
		c-0.823,3.802-1.668,7.571-2.434,11.357c-0.163,0.807-0.476,1.044-1.268,1.033C21.748,47.701,18.881,47.726,15.776,47.726z"/>
</g>
</svg>
